<svg xmlns="http://www.w3.org/2000/svg" width="570.63" height="160.357" viewBox="0 0 570.63 160.357">
  <g id="Group_1458" data-name="Group 1458" transform="translate(401 -3347)">
    <g id="Group_1456" data-name="Group 1456" transform="translate(-401 3347)">
      <path id="Path_37765" data-name="Path 37765" d="M149.363,108.7,146,130.117l38.218-.137c3.665-.012,6.494-.28,9.054-2.334s3.591-5.267,4.171-8.727a14.014,14.014,0,0,0-.453-7.6c-.53-1.4-4.273-2.424-6.014-2.433l-41.612-.188m6.8-37.069L152.79,89.866l41.386-.488a5.826,5.826,0,0,0,4.538-2.644,15.507,15.507,0,0,0,2.572-7.295c.36-3.808-.875-7.4-5.773-7.6ZM135.417,51.35h47.117c11.281,0,25.091-1.134,35.809,3.478,7.208,3.1,8.748,11.079,8.051,18.984-.479,5.437-2.025,10.933-4.966,15.1-3.338,4.722-8.542,6.7-15.292,8.813,7.28.911,10.278,1.319,13.416,5.484,3.159,4.189,2.447,12.993,1.566,18.653-1.468,9.4-8.036,19.975-15.878,23.158-4.957,2.01-10.927,2.945-17.37,3.519q-6.007.54-28.812.661H118.94Z" transform="translate(45.74 -19.979)" fill="#ffffff"/>
      <path id="Path_37766" data-name="Path 37766" d="M208.1,102.538l-6.875-30.185-16.688,30.185H208.1m22.182,29.283H213.738l-3.031-13.595H176.681l-7.089,13.595H152.433l39.218-72.678h23Z" transform="translate(111.969 -4.327)" fill="#ffffff"/>
      <path id="Path_37767" data-name="Path 37767" d="M205.269,117.2l16.468.083c6.262.03,12.332-4.365,13.928-12.758.837-4.4,2.974-15.122,3.007-19.949a18.26,18.26,0,0,0-.92-6.333c-1.09-2.5-4.567-5.318-7.634-5.35l-16.81-.188c-3.367-.039-9.37,5.056-10.239,8.23-2.188,7.982-5.91,24.334-4.359,29.723a8.467,8.467,0,0,0,6.559,6.541m21.279,14.286c-10.076,1.218-20.583.506-29.863-.393a19.154,19.154,0,0,1-12.1-7.059c-2.829-3.743-4.159-9.161-3.061-15.465l5.225-29.95c1.769-10.147,13.434-19.77,26.252-19.639l26.7.274c6.047.063,18.472,7.053,16.891,18.034-1.685,11.725-3.418,23.322-5.91,34.907C248.739,121.24,238.387,130.059,226.548,131.488Z" transform="translate(168.734 -4.644)" fill="#ffffff"/>
      <path id="Path_37768" data-name="Path 37768" d="M270.792,75.069H233.323L230.615,88.2H266.45l-2.494,15.459h-35.8l-4.731,28.015H207.19l12-72.457h53.845l-2.248,15.853" transform="translate(220.245 -4.181)" fill="#ffffff"/>
      <path id="Path_37769" data-name="Path 37769" d="M297.754,131.868H271.53L252.8,74.9l-9.909,56.966h-15.4l12.793-72.751H266.24l18.046,57.088,9.453-56.968,16.506.017-12.491,72.614" transform="translate(260.385 -4.376)" fill="#ffffff"/>
      <path id="Path_37770" data-name="Path 37770" d="M86.615,130.3c-6.127-27.714,8.191-76.346,26.293-88.015,3.847-2.433,10.692-1.834,16.617.533,8.938,3.57,14.753,9.745,5.592,16C121.811,67.9,111.491,80.663,104.03,91.947A127.528,127.528,0,0,0,86.615,130.3" transform="translate(-21.025 -40.732)" fill="#ffffff" fill-rule="evenodd"/>
      <path id="Path_37771" data-name="Path 37771" d="M99.581,131.17C82.327,112.341,71.576,68,80.424,50.753c1.9-3.629,7.5-6.247,13.184-7.074,8.572-1.248,15.884.941,11.564,9.942C98.9,66.694,96.6,81.286,95.871,93.437a114.807,114.807,0,0,0,3.71,37.733" transform="translate(-36.683 -35.541)" fill="#ffffff" fill-rule="evenodd"/>
      <path id="Path_37772" data-name="Path 37772" d="M119.175,122.668C96.9,115.436,68.289,84.9,67.562,67.133c-.122-3.757,3.165-8.378,7.327-11.609C81.169,50.656,88,49.1,88.609,58.237c.9,13.273,5.657,25.957,10.564,35.985a105.24,105.24,0,0,0,20,28.446" transform="translate(-55.861 -19.202)" fill="#ffffff" fill-rule="evenodd"/>
      <path id="Path_37773" data-name="Path 37773" d="M130.964,103.287c-20.621,4.937-57.136-5.139-66.083-18.519-1.867-2.843-1.51-7.968.185-12.425,2.549-6.729,7.089-11.156,11.877-4.389,6.955,9.828,16.62,17.379,25.144,22.81a95.271,95.271,0,0,0,28.878,12.523" transform="translate(-63.63 6.428)" fill="#ffffff" fill-rule="evenodd"/>
      <path id="Path_37774" data-name="Path 37774" d="M131.122,79.257c-12.967,13.514-44.9,23.459-57.937,17.79-2.742-1.224-4.922-5.2-5.791-9.322-1.313-6.217-.054-11.671,6.732-8.929,9.858,3.984,20.642,4.978,29.566,4.942a84.042,84.042,0,0,0,27.431-4.481" transform="translate(-57.101 33.096)" fill="#ffffff" fill-rule="evenodd"/>
      <path id="Path_37775" data-name="Path 37775" d="M124.064,78.852c-5.33,17.5-26.856,39.614-39.141,39.885-2.6.03-5.74-2.653-7.908-6-3.272-5.053-4.246-10.48,2.078-10.811,9.182-.479,18.016-4.028,25.019-7.735a73.09,73.09,0,0,0,19.952-15.34" transform="translate(-42.247 34.647)" fill="#ffffff" fill-rule="evenodd"/>
      <path id="Path_37776" data-name="Path 37776" d="M111.894,77.828c3.65,16.3-3.487,43.559-13.121,49.312-2.048,1.2-5.755.482-8.983-1.2-4.871-2.537-8.09-6.41-3.219-9.522C93.649,111.9,99.068,105.1,102.956,99a66.769,66.769,0,0,0,8.938-21.172" transform="translate(-23.046 32.623)" fill="#ffffff" fill-rule="evenodd"/>
      <path id="Path_37777" data-name="Path 37777" d="M97.888,75.256c9.7,11.35,15.533,35.94,10.391,44.572-1.1,1.813-4.305,2.817-7.545,2.855-4.883.054-9.027-1.646-6.515-6.172,3.653-6.571,5.05-14.244,5.541-20.72a60.567,60.567,0,0,0-1.873-20.535" transform="translate(-4.639 27.537)" fill="#ffffff" fill-rule="evenodd"/>
      <path id="Path_37778" data-name="Path 37778" d="M94.995,72.641c12.85,4.392,28.809,20.931,28.783,30.069-.024,1.932-2.066,4.2-4.582,5.734-3.8,2.3-7.831,2.9-7.959-1.81-.185-6.839-2.647-13.491-5.261-18.787A55.046,55.046,0,0,0,94.995,72.641" transform="translate(-1.609 22.366)" fill="#ffffff" fill-rule="evenodd"/>
      <path id="Path_37779" data-name="Path 37779" d="M93.333,70.165c12.267-2.269,32.489,3.79,36.58,11.121.849,1.557.235,4.293-1.09,6.652-2,3.558-4.966,5.848-7.187,2.135-3.225-5.392-8.191-9.611-12.669-12.672a50.462,50.462,0,0,0-15.634-7.235" transform="translate(-4.895 16.514)" fill="#ffffff" fill-rule="evenodd"/>
      <path id="Path_37780" data-name="Path 37780" d="M90.67,75.569c8.736-7.926,28.008-13.109,34.943-9.248,1.456.831,2.325,3.338,2.43,5.892.155,3.856-1.09,7.17-4.719,5.291-5.273-2.733-11.365-3.656-16.486-3.894A47.71,47.71,0,0,0,90.67,75.569" transform="translate(-10.161 7.287)" fill="#ffffff" fill-rule="evenodd"/>
      <path id="Path_37781" data-name="Path 37781" d="M88.114,85.312c2.927-10.48,15.432-24,22.741-24.4,1.545-.066,3.454,1.465,4.791,3.409,2.016,2.933,2.671,6.133-1.087,6.449-5.461.459-10.668,2.73-14.783,5.065a44.015,44.015,0,0,0-11.662,9.474" transform="translate(-15.215 -0.825)" fill="#ffffff" fill-rule="evenodd"/>
    </g>
  </g>
</svg>
